<svg xmlns="http://www.w3.org/2000/svg" viewBox="0 0 28.96 29.6"><defs><style>.cls-1{fill:none;stroke:#fff;stroke-linecap:round;stroke-linejoin:round;stroke-width:2px;}</style></defs><g id="레이어_2" data-name="레이어 2"><g id="레이어_2-2" data-name="레이어 2"><polygon class="cls-1" points="5.12 9.36 2.94 7.18 7.42 2.88 9.6 5.12 11.42 4.45 11.42 1 17.33 1 17.33 4.39 19.33 5.18 22.18 2.67 26.69 7.27 24.51 9.51 24.87 11.45 27.96 11.45 27.96 18.09 24.93 18.09 24.11 19.06 26.6 21.72 21.87 26.42 19.69 24.11 17.78 24.78 17.78 28.6 11.21 28.6 11.21 24.9 9.42 24.21 7.12 26.75 2.94 22.18 5.12 19.96 4.82 17.48 1 17.42 1 11.18 4.09 11.42 5.12 9.36"/><circle class="cls-1" cx="14.63" cy="14.8" r="4.39"/></g></g></svg>