<svg xmlns="http://www.w3.org/2000/svg" viewBox="0 0 296.07 282.06"><defs><style>.cls-1{fill:#fff;}</style></defs><g id="레이어_2" data-name="레이어 2"><g id="레이어_2-2" data-name="레이어 2"><path class="cls-1" d="M17.81,210.45a17.81,17.81,0,1,0,17.81,17.81A17.83,17.83,0,0,0,17.81,210.45Z"/><path class="cls-1" d="M278.26,210.45a17.81,17.81,0,1,0,17.81,17.81A17.83,17.83,0,0,0,278.26,210.45Z"/><path class="cls-1" d="M200.92,244.85a7.15,7.15,0,0,0-10.07.63c-8.93,10.11-19.6,17-42.6,17.83h-.37c-23.06-.82-33.73-7.73-42.66-17.84a7.13,7.13,0,0,0-10.69,9.44c9.38,10.61,23,21.61,53,22.65h1.06a98.43,98.43,0,0,0,20.72-2.77l6.3,5.52a6.9,6.9,0,0,0,4.56,1.74,6.79,6.79,0,0,0,2.26-.38,6.87,6.87,0,0,0,4.6-5.23l2-9.86c0-.15.05-.31.07-.47a65.22,65.22,0,0,0,12.47-11.2A7.15,7.15,0,0,0,200.92,244.85Z"/><path class="cls-1" d="M268,8.09l0-.07V7.76c0-.23,0-.45,0-.65V7a6.12,6.12,0,0,0-.06-.63,1.55,1.55,0,0,0,0-.21l-1.47.31,1.45-.41c0-.13-.05-.27-.08-.4s0-.19-.08-.28l0-.12a1.61,1.61,0,0,0-.09-.29c0-.11-.08-.22-.13-.33l-1.38.58,1.33-.71c0-.07-.06-.13-.09-.21l-.15-.3-.07-.12-.11-.2c-.06-.1-.12-.2-.24-.38l-.16-.23a1.84,1.84,0,0,0-.17-.22l-1.16,1,1.07-1.06-.18-.23L266,2.31l-1.06,1.06,1-1.13L265.68,2l-.16-.13-1,1.15.85-1.24a3.11,3.11,0,0,0-.28-.23L265,1.39l-.84,1.25.74-1.32-.3-.2L264.31,1l-.13-.07-.26-.14c-.13-.06-.25-.12-.46-.2a1,1,0,0,0-.21-.09l-.18-.07V.29L261.8.09h-.13l-.2,0-.23,1.49h0l.08-1.5-.38,0h-.73c-.22,0-.45,0-.67.07l-.16,0a5.54,5.54,0,0,0-.56.11l-.24.07a3.88,3.88,0,0,0-.45.14l-.28.11-.38.16-.2.1L258,2.12,257.18.85l-.34.19-.22.13-.39.26-.15.12-.42.35-.1.09c-.13.13-.27.26-.38.38l-.1.11c-.13.15-.26.29-.39.47l-.07.1c-.11.15-.22.31-.33.49l-.12.21c-.08.13-.15.26-.22.4l-.11.24-.05.12c0,.1-.09.2-.13.31s-.09.26-.16.49l-.06.21c-.06.19-.09.38-.13.56l-.05.3C247.85,39.56,228.32,73.25,201,96.52c-15.48,13.21-33.27,22.84-51.46,27.87-18.19-5-36-14.66-51.46-27.87-27.3-23.27-46.82-57-52.24-90.14l0-.28a4.29,4.29,0,0,0-.13-.6l0-.14c-.06-.19-.11-.37-.18-.55a1.6,1.6,0,0,0-.1-.23l0-.11c0-.11-.09-.22-.14-.34A2.75,2.75,0,0,0,45,3.84l0-.11a1.57,1.57,0,0,1-.12-.21l-.3-.44-.12-.16-.33-.4L44,2.37c-.1-.11-.21-.21-.36-.35l-.15-.14-.29-.24-.93,1.18.83-1.26-.17-.13-.28-.19L41.79,2.5l.7-1.33L42.28,1,42,.89,41.89.82,41.65.7a1.78,1.78,0,0,0-.29-.12L41.23.52,41,.43c-.12,0-.25-.08-.37-.12l-.11,0L40.3.22,39.75.11l-.17,0L39,0h-.89l-.3,0-.14,0-.39,0q-.34.06-.69.15l-.12,0-.58.19-.2.08.61,1.37L35.56.61l-.35.16-.29.15-.1.06-.25.14-.28.19-.12.09L34,1.53l-.36.3L33.44,2l-.24.24,1.08,1-1.17-1-.17.18-.2.24,1.18.92-1.25-.83-.18.23-.14.21,1.26.81-1.32-.71c-.07.09-.13.19-.2.29s-.07.13-.1.2l1.33.68L31.93,4c-.06.11-.12.22-.17.33a1.8,1.8,0,0,0-.08.21l1.39.55-1.45-.42a3.42,3.42,0,0,0-.13.34c0,.07,0,.15-.08.23l0,.15-.09.3c0,.11-.05.22-.07.33l0,.14c0,.08,0,.16-.05.25s0,.37-.05.56l0,.17c0,.21,0,.43,0,.67l4.45,79.88v.08a134,134,0,0,0,11,45.78,122.77,122.77,0,0,0,24.37,35.58,158.21,158.21,0,0,0,34.52,26.26,243.83,243.83,0,0,0,41.68,18.58l.15,0c.26.08.52.14.81.2l.28.06a6.88,6.88,0,0,0,1.18.1,6.8,6.8,0,0,0,1.18-.1,2.11,2.11,0,0,0,.3-.07,5.85,5.85,0,0,0,.8-.2l.15,0a243.37,243.37,0,0,0,41.67-18.58,158.21,158.21,0,0,0,34.52-26.26,122.63,122.63,0,0,0,24.37-35.58A134,134,0,0,0,263.6,87.73ZM250.3,59l-1.54,27.71c-3.65,53.11-36.09,89.84-99.2,112.27C86.46,176.57,54,139.84,50.37,86.75L48.82,59c.63,1.14,1.27,2.28,1.92,3.4a175.93,175.93,0,0,0,37.71,45.41,158.76,158.76,0,0,0,27.75,19,141.6,141.6,0,0,0,31.5,12.41l.32.07.13,0,.32.06a8.92,8.92,0,0,0,1,.09h.23a8.54,8.54,0,0,0,1-.09l.32-.06.14,0,.31-.07a141.6,141.6,0,0,0,31.5-12.41,158.76,158.76,0,0,0,27.75-19,175.93,175.93,0,0,0,37.71-45.41C249,61.31,249.67,60.17,250.3,59Z"/></g></g></svg>